<svg xmlns="http://www.w3.org/2000/svg" width="17" height="17" viewBox="0 0 17.00 17.00" fill="none"><g transform="matrix(1 0 0 1 1.4695918560028076 1.1338847875595093)"><path d="M13.61 4.73L9.39 4.12L7.51 0.30C7.46 0.19 7.37 0.11 7.27 0.05C7.00 -0.07 6.69 0.03 6.55 0.30L4.67 4.12L0.45 4.73C0.34 4.74 0.23 4.80 0.15 4.88C0.05 4.98 -0.00 5.12 0.00 5.26C0.00 5.40 0.06 5.54 0.16 5.63L3.21 8.61L2.49 12.81C2.47 12.90 2.48 13.00 2.52 13.10C2.56 13.19 2.62 13.27 2.70 13.33C2.78 13.38 2.88 13.42 2.97 13.43C3.07 13.43 3.17 13.41 3.26 13.37L7.03 11.38L10.80 13.37C10.90 13.42 11.02 13.44 11.14 13.42C11.43 13.37 11.62 13.10 11.57 12.81L10.85 8.61L13.90 5.63C13.98 5.55 14.04 5.45 14.05 5.33C14.10 5.04 13.90 4.77 13.61 4.73Z" fill="#037e8c"/></g></svg>
